HIERARCHY
ROOT Hips
{
	OFFSET	0.00	0.00	0.00
	CHANNELS 6 Xposition Yposition Zposition Zrotation Xrotation Yrotation
	JOINT Spine
	{
		OFFSET	 0.00	0.01	 0.00
		CHANNELS 3 Zrotation Xrotation Yrotation
		JOINT Spine1
		{
			OFFSET	 0.00	 2.45913012437421	 0.00
			CHANNELS 3 Zrotation Xrotation Yrotation
            JOINT Neck
            {
                OFFSET	 0.00	 2.48462964506057	 0.00
                CHANNELS 3 Zrotation Xrotation Yrotation
                JOINT Head
                {
                    OFFSET	 0.00	 0.927524780924562	 0.00
                    CHANNELS 3 Zrotation Xrotation Yrotation
                    End Site 
                    {
                        OFFSET	 0.00	 1.14999962169752	 0.00
                    }
                }
            }
			JOINT LeftShoulder
			{
				OFFSET	 0.00	 2.48462964506057	 0.00
				CHANNELS 3 Zrotation Xrotation Yrotation
				JOINT LeftUpArm
				{
					OFFSET	 0.00	 1.24881979654096	 0.00
					CHANNELS 3 Zrotation Xrotation Yrotation
					JOINT LeftForeArm
					{
						OFFSET	 0.00	2.59758046908119	 0.00
						CHANNELS 3 Zrotation Xrotation Yrotation
						JOINT LeftHand
						{
							OFFSET	 0.00	2.45542024364365	 0.00
							CHANNELS 3 Zrotation Xrotation Yrotation
							JOINT LeftHandThumb 
							{
								OFFSET	 0.00	0.00	 0.00
								CHANNELS 3 Zrotation Xrotation Yrotation
								End Site
								{
									OFFSET	 0.00	0.00	1.00000003353624
								}
							}
							JOINT L_Wrist_End 
							{
								OFFSET	 0.00	0.99999967115358	 0.00
								CHANNELS 3 Zrotation Xrotation Yrotation
								End Site 
								{
									OFFSET	 0.00	 0.00	 0.00
								}
							}
						}
					}
				}
			}
			JOINT RightShoulder
			{
				OFFSET	 0.00	 2.48462964506057	 0.00
				CHANNELS 3 Zrotation Xrotation Yrotation
				JOINT RightUpArm
				{
					OFFSET	 0.00	 1.24881979654096	 0.00
					CHANNELS 3 Zrotation Xrotation Yrotation
					JOINT RightForeArm
					{
						OFFSET	 0.00	2.59758046908119	 0.00
						CHANNELS 3 Zrotation Xrotation Yrotation
						JOINT RightHand
						{
							OFFSET	 0.00	2.45542024364365	 0.00
							CHANNELS 3 Zrotation Xrotation Yrotation
							JOINT RightHandThumb 
							{
								OFFSET	 0.00	0.00	 0.00
								CHANNELS 3 Zrotation Xrotation Yrotation
								End Site
								{
									OFFSET	 0.00	0.00	1.00000003353624
								}
							}
							JOINT R_Wrist_End 
							{
								OFFSET	 0.00	0.99999967115358	 0.00
								CHANNELS 3 Zrotation Xrotation Yrotation
								End Site 
								{
									OFFSET	 0.00	 0.00	 0.00
								}
							}
						}
					}
				}
			}
		}
	}
	JOINT LeftUpLeg
	{
		OFFSET	 1.2719394002717	 0.00	 0.00
		CHANNELS 3 Zrotation Xrotation Yrotation
		JOINT LeftLowLeg
		{
			OFFSET	 0.00	-4.3429100912261	 0.00
			CHANNELS 3 Zrotation Xrotation Yrotation
			JOINT LeftFoot
			{
				OFFSET	 0.00	-4.48767017425826	 0.00
				CHANNELS 3 Zrotation Xrotation Yrotation
				JOINT LeftToeBase
                {
                    OFFSET	 0.00	0.00	 1.51507020887566
                    CHANNELS 3 Zrotation Xrotation Yrotation
                    End Site 
                    {
                        OFFSET	 0.00	0.00	 0.75000010571191
                    }
                }
			}
		}
	}
	JOINT RightUpLeg
	{
		OFFSET	 -1.2719393604653	 0.00	 0.00
		CHANNELS 3 Zrotation Xrotation Yrotation
		JOINT RightLowLeg
		{
			OFFSET	 0.00	-4.3429100912261	 0.00
			CHANNELS 3 Zrotation Xrotation Yrotation
			JOINT RightFoot
			{
				OFFSET	 0.00	-4.48767017425826	 0.00
				CHANNELS 3 Zrotation Xrotation Yrotation
				JOINT RightToeBase
                {
                    OFFSET	 0.00	0.00	 1.51507020887566
                    CHANNELS 3 Zrotation Xrotation Yrotation
                    End Site 
                    {
                        OFFSET	 0.00	0.00	 0.749999965609858
                    }
                }   
			}
		}
	}
}
MOTION 
Frames:	8 
Frame Time: 0.02 
  -4.037319946289062 8.421599731445312 9.21239013671875 15.9251 83.5988 106.694 -7.9389 -7.67634 -1.71154 16.9353 6.06436 -7.89973 14.8478 57.2961 -33.7858 53.5228 -83.6289 391.692 -127.4756 -5.4902 7.6812 -29.9833 -0.795021 13.6983 0.0 112.589 0.0 67.0699 14.6117 13.1253 0.0 0.0 0.0 0.0 0.0 0.0 115.0883 -0.499431 -375.848 12.704 14.6997 12.3833 0.0 98.8283 0.0 -86.24 34.6559 11.118 0.0 0.0 0.0 0.0 0.0 0.0 3.26589 -3.96864 1.61592 0.0 14.5944 0.0 -13.6989 -1.6881008 -0.745408 0.0 -31.3892 0.0 8.54062 -20.5339 0.211582 0.0 40.1143 0.0 8.66089 7.15281 -2.85838 0.0 -47.4041 0.0 
  -3.983380126953125 8.47301025390625 9.212249755859375 15.0312 83.4482 107.126 -8.12571 -7.59081 -1.77183 17.3647 6.14459 -7.93325 14.8524 57.0748 -33.9194 53.966 -83.7013 392.265 -127.7146 -5.48997 7.61849 -30.222 -0.744533 13.8273 0.0 112.574 0.0 66.8782 14.7969 12.8274 0.0 0.0 0.0 0.0 0.0 0.0 114.994 -0.488757 -375.733 12.6673 14.7253 12.2822 0.0 99.0215 0.0 -85.3793 34.0658 11.1268 0.0 0.0 0.0 0.0 0.0 0.0 3.26958 -3.25974 1.78193 0.0 14.0669 0.0 -13.7844 -2.0270996 -0.569137 0.0 -31.054 0.0 8.97563 -20.5739 0.409059 0.0 35.5505 0.0 9.31006 7.457 -4.06388 0.0 -45.4731 0.0 
  -3.9252301025390626 8.524149780273438 9.2093701171875 13.3346 83.3824 108.39 -8.40741 -7.61407 -1.85708 17.8335 6.196 -7.96805 14.6552 56.9558 -33.8536 53.3124 -83.8217 391.634 -127.9655 -5.42876 7.65107 -30.4727 -0.71365 13.9064 0.0 112.589 0.0 66.7867 14.7483 12.7466 0.0 0.0 0.0 0.0 0.0 0.0 114.7978 -0.419517 -375.57 12.7414 14.6809 11.8696 0.0 99.63 0.0 -84.2624 30.0589 11.5092 0.0 0.0 0.0 0.0 0.0 0.0 3.17029 -2.56193 1.969 0.0 13.4758 0.0 -13.7636 -2.3262997 -0.387991 0.0 -30.6688 0.0 9.31988 -20.6295 0.819595 0.0 31.0821 0.0 10.203 7.74187 -5.78587 0.0 -44.580902 0.0 
  -3.8636898803710937 8.573079833984375 9.203300170898437 11.1691 83.3606 110.106 -8.80354 -7.64477 -1.94687 18.4957 6.1906 -7.96755 13.9193 56.8344 -33.26 50.917 -84.0558 388.936 -128.411 -5.53062 7.63901 -30.3222 -0.467949 14.2624 0.0 112.558 0.0 67.0528 14.4978 12.7703 0.0 0.0 0.0 0.0 0.0 0.0 114.440704 -0.326638 -375.367 12.9099 14.5056 11.3105 0.0 101.115 0.0 -81.4987 20.9595 13.288 0.0 0.0 0.0 0.0 0.0 0.0 3.06343 -1.87064 2.22349 0.0 12.8464 0.0 -13.749 -2.5839005 -0.417664 0.0 -30.521801 0.0 9.61396 -20.7702 1.40024 0.0 26.9568 0.0 10.586 7.7804 -7.74729 0.0 -43.8792 0.0 
  -3.801319885253906 8.621530151367187 9.196710205078125 8.9334 83.2905 111.865 -9.24927 -7.61024 -2.05004 19.5575 6.00873 -7.92065 12.4072 56.7418 -32.013 44.4201 -84.4508 381.936 -128.865 -5.51259 7.65825 -30.6544 -0.555804 14.4089 0.0 112.481 0.0 67.0016 14.5901 12.48 0.0 0.0 0.0 0.0 0.0 0.0 113.7048 -0.228748 -375.397 13.2819 14.3391 11.0815 0.0 103.442 0.0 -77.4189 7.76293 17.1151 0.0 0.0 0.0 0.0 0.0 0.0 2.95759 -1.18269 2.25092 0.0 12.1952 0.0 -13.8279 -2.9339008 -0.216228 0.0 -30.2673 0.0 9.91868 -21.0107 2.13071 0.0 23.2063 0.0 10.0024 8.15873 -9.64279 0.0 -43.6721 0.0 
  -3.7341900634765626 8.670560302734375 9.188740234375 6.24338 83.2611 114.109 -9.8399 -7.54726 -2.23571 20.8561 5.66364 -7.88516 10.7529 56.5501 -30.7961 34.0531 -84.7208 371.116 -129.3988 -5.57654 7.38823 -30.9735 -0.797593 14.9122 0.0 112.456 0.0 67.1277 14.4167 12.6022 0.0 0.0 0.0 0.0 0.0 0.0 112.9051 -0.0249633 -375.412 13.629 14.1466 11.1821 0.0 106.408 0.0 -73.2674 -8.30184 21.643 0.0 0.0 0.0 0.0 0.0 0.0 2.79265 -0.506577 2.39863 0.0 11.5245 0.0 -13.8771 -3.2187004 -0.0695258 0.0 -30.093601 0.0 10.1091 -21.1788 2.6067 0.0 19.5426 0.0 9.55579 8.60919 -11.2574 0.0 -43.813 0.0 
  -3.6627899169921876 8.719520263671875 9.179010009765625 3.34106 83.212 116.622 -10.1413 -7.72388 -2.27984 21.6259 5.63317 -7.84641 9.90036 56.2009 -30.4679 25.9956 -84.8515 362.684 -129.8046 -5.56057 7.50077 -31.1137 -0.783474 15.0607 0.0 112.4 0.0 67.075 14.4297 12.4416 0.0 0.0 0.0 0.0 0.0 0.0 112.4055 0.0449138 -375.49 13.9769 14.1319 12.2997 0.0 109.647 0.0 -68.9028 -25.4499 27.1758 0.0 0.0 0.0 0.0 0.0 0.0 2.64161 0.100268 2.68857 0.0 10.9494 0.0 -13.4339 -3.577999 0.104343 0.0 -29.668499 0.0 10.2336 -21.291 3.00609 0.0 16.0732 0.0 8.11406 9.35634 -12.3726 0.0 -44.1101 0.0 
  -3.5885101318359376 8.769719848632812 9.167160034179688 0.378962 83.221 119.272 -10.6075 -7.599 -2.552 22.6024 5.127 -7.88408 8.64911 56.057 -29.6503 16.3211 -84.8169 352.72 -130.2661 -5.82298 7.30919 -31.3607 -1.08426 15.4326 0.0 112.412 0.0 67.0258 14.4564 12.1805 0.0 0.0 0.0 0.0 0.0 0.0 111.6948 0.331819 -375.896 14.4687 14.1662 14.6178 0.0 112.818 0.0 -61.3467 -42.9648 33.6454 0.0 0.0 0.0 0.0 0.0 0.0 2.40686 0.645668 2.9838 0.0 10.5793 0.0 -13.9185 -3.816 -0.136537 0.0 -29.8872 0.0 10.2128 -21.344 3.17243 0.0 12.9162 0.0 7.70734 9.41665 -12.9249 0.0 -44.0819 0.0 
